Coordinates
version=1
nRows=60
nColumns=12
inDegrees=yes

Units are S.I. units (second, meters, Newtons, ...)
Angles are in degrees

endheader
time	SC_y	SC_z	SC_x	AC_y	AC_z	AC_x	GH_y	GH_z	GH_yy	EL_x	PS_y
       0.0              -49.28          27.27          44.65          60.98          1.708          10.49          24.72          61.23          14.33          100.1           36.3
   0.04816              -49.27          27.26          44.65          60.98          1.706          10.49          24.71          61.23          14.34          100.1           36.3
   0.09633              -49.27          27.26          44.65          60.98          1.704          10.49          24.69          61.23          14.36          100.1          36.29
    0.1445              -49.26          27.25          44.65          60.98          1.701          10.48          24.67          61.23          14.37          100.1          36.29
    0.1927              -49.26          27.25          44.66          60.97          1.699          10.48          24.65          61.23          14.39          100.1          36.29
    0.2408              -49.25          27.24          44.66          60.97          1.696          10.48          24.63          61.23          14.41          100.1          36.29
     0.289              -49.25          27.24          44.67          60.97          1.693          10.47          24.61          61.23          14.43          100.1          36.29
    0.3372              -49.24          27.23          44.67          60.97           1.69          10.47          24.59          61.23          14.45          100.1          36.29
    0.3853              -49.24          27.22          44.67          60.96          1.686          10.46          24.57          61.23          14.47          100.1          36.29
    0.4335              -49.23          27.22          44.68          60.96          1.683          10.46          24.54          61.23          14.49          100.1          36.29
    0.4816              -49.22          27.21          44.68          60.96          1.679          10.45          24.52          61.23          14.52          100.1          36.29
    0.5298              -49.21           27.2          44.69          60.96          1.675          10.45          24.49          61.23          14.55          100.1          36.29
     0.578               -49.2          27.19          44.69          60.95           1.67          10.44          24.45          61.23          14.58          100.1          36.29
    0.6261              -49.19          27.18           44.7          60.95          1.665          10.44          24.42          61.23          14.61          100.1          36.29
    0.6743              -49.18          27.17          44.71          60.95           1.66          10.43          24.38          61.24          14.64          100.1          36.29
    0.7225              -49.17          27.16          44.72          60.94          1.654          10.42          24.34          61.24          14.68          100.1          36.29
    0.7706              -49.16          27.15          44.72          60.94          1.648          10.41           24.3          61.24          14.72          100.1          36.29
    0.8188              -49.15          27.14          44.73          60.93          1.641           10.4          24.25          61.24          14.76          100.1          36.28
     0.867              -49.13          27.12          44.74          60.93          1.634          10.39           24.2          61.24          14.81          100.1          36.28
    0.9151              -49.12          27.11          44.75          60.92          1.625          10.38          24.14          61.24          14.86          100.1          36.28
    0.9633               -49.1          27.09          44.76          60.91          1.616          10.37          24.08          61.24          14.92          100.1          36.28
     1.011              -49.08          27.07          44.78          60.91          1.607          10.36          24.01          61.24          14.99          100.1          36.28
      1.06              -49.06          27.05          44.79           60.9          1.596          10.34          23.94          61.24          15.06          100.1          36.28
     1.108              -49.03          27.02          44.81          60.89          1.584          10.33          23.85          61.24          15.13          100.1          36.27
     1.156              -49.01           27.0          44.82          60.88           1.57          10.31          23.76          61.24          15.22          100.1          36.27
     1.204              -48.98          26.97          44.84          60.87          1.555          10.29          23.65          61.24          15.32          100.1          36.27
     1.252              -48.95          26.94          44.86          60.85          1.539          10.27          23.54          61.24          15.43          100.1          36.27
       1.3              -48.91           26.9          44.89          60.84           1.52          10.24          23.41          61.24          15.55          100.1          36.26
     1.349              -48.87          26.86          44.92          60.82          1.499          10.21          23.26          61.24          15.69          100.1          36.26
     1.397              -48.82          26.81          44.95          60.81          1.475          10.18          23.09          61.25          15.84          100.1          36.26
     1.445              -48.77          26.76          44.98          60.79          1.447          10.15           22.9          61.25          16.02          100.1          36.25
     1.493               -48.7           26.7          45.02          60.76          1.415           10.1          22.67          61.25          16.22          100.2          36.25
     1.541              -48.63          26.63          45.07          60.74          1.379          10.05          22.42          61.25          16.46          100.2          36.24
     1.589              -48.55          26.54          45.13           60.7          1.337          9.998          22.12          61.25          16.74          100.2          36.23
     1.638              -48.45          26.45          45.19          60.67          1.287          9.932          21.78          61.26          17.06          100.2          36.22
     1.686              -48.34          26.33          45.27          60.62          1.228          9.854          21.37          61.26          17.44          100.2          36.21
     1.734               -48.2           26.2          45.36          60.57          1.159          9.761          20.88          61.27          17.89          100.2           36.2
     1.782              -48.04          26.04          45.46          60.51          1.076           9.65           20.3          61.27          18.43          100.2          36.19
      1.83              -47.84          25.84          45.59          60.43         0.9748          9.515          19.59          61.28          19.08          100.3          36.17
     1.878               -47.6           25.6          45.75          60.34         0.8517          9.351          18.73          61.28          19.88          100.3          36.15
     1.927               -47.3          25.31          45.95          60.23         0.6997          9.148          17.67          61.29          20.86          100.3          36.12
     1.975              -46.93          24.94          46.19          60.09         0.5103          8.895          16.34           61.3          22.09          100.4          36.09
     2.023              -46.46          24.48           46.5          59.91         0.2715          8.577          14.68          61.32          23.63          100.5          36.05
     2.071              -45.86          23.89           46.9          59.68       -0.03191          8.172          12.55          61.34           25.6          100.5           36.0
     2.119               -45.1          23.13           47.4          59.39        -0.4203          7.654          9.837          61.36          28.11          100.6          35.93
     2.167              -44.12          22.17          48.04          59.02        -0.9187          6.988          6.352          61.39          31.34          100.8          35.85
     2.216              -42.87          20.93          48.86          58.55         -1.555          6.139            1.9          61.43          35.47          100.9          35.74
     2.264               -41.3          19.38           49.9          57.95         -2.356          5.071         -3.698          61.48          40.65          101.2           35.6
     2.312              -39.38          17.48          51.16          57.22         -3.332          3.769         -10.52          61.54          46.97          101.4          35.43
      2.36              -37.16          15.29          52.62          56.38         -4.462           2.26         -18.43           61.6          54.29          101.7          35.24
     2.408              -34.75          12.91          54.21          55.46         -5.687         0.6263         -26.99          61.68          62.22          102.0          35.03
     2.456              -32.35          10.53          55.79          54.55         -6.911         -1.008         -35.55          61.75          70.15          102.4          34.82
     2.505              -30.13          8.336          57.25           53.7         -8.042         -2.516         -43.46          61.82          77.48          102.6          34.63
     2.553              -28.21          6.442          58.51          52.98         -9.018         -3.818         -50.28          61.88          83.79          102.9          34.46
     2.601              -26.64          4.888          59.55          52.38         -9.818         -4.886         -55.88          61.93          88.98          103.1          34.32
     2.649              -25.39          3.651          60.37           51.9         -10.45         -5.736         -60.33          61.96           93.1          103.3          34.21
     2.697              -24.41          2.684          61.02          51.53         -10.95         -6.401         -63.82          61.99          96.33          103.4          34.13
     2.745              -23.65           1.93          61.52          51.24         -11.34         -6.919         -66.53          62.02          98.85          103.5          34.06
     2.794              -23.05          1.341          61.91          51.02         -11.65         -7.324         -68.65          62.04          100.8          103.6          34.01
     2.842              -22.58         0.8771          62.22          50.84         -11.88         -7.643         -70.32          62.05          102.4          103.7          33.97
